<?xml version="1.0" standalone="no"?>
<!DOCTYPE svg PUBLIC "-//W3C//DTD SVG 20010904//EN"
 "http://www.w3.org/TR/2001/REC-SVG-20010904/DTD/svg10.dtd">
<svg version="1.0" xmlns="http://www.w3.org/2000/svg"
 width="288.000000pt" height="288.000000pt" viewBox="0 0 288.000000 288.000000"
 preserveAspectRatio="xMidYMid meet">

<g transform="translate(0.000000,288.000000) scale(0.100000,-0.100000)"
fill="#000000" stroke="none">
<path d="M1425 2870 c-3 -5 -28 -10 -55 -10 -27 0 -52 -4 -55 -10 -3 -5 -17
-10 -31 -10 -13 0 -32 -4 -42 -9 -9 -5 -37 -15 -62 -22 -25 -7 -47 -16 -50
-19 -3 -3 -30 -14 -60 -24 -30 -10 -64 -26 -75 -36 -11 -9 -36 -24 -56 -33
-20 -9 -42 -23 -49 -32 -7 -8 -17 -15 -23 -15 -30 0 -307 -276 -307 -307 0 -5
-9 -18 -20 -28 -11 -10 -20 -23 -20 -30 0 -7 -9 -20 -20 -30 -11 -10 -20 -24
-20 -32 0 -7 -4 -13 -10 -13 -5 0 -10 -9 -10 -20 0 -11 -4 -20 -10 -20 -5 0
-10 -9 -10 -20 0 -11 -4 -20 -10 -20 -5 0 -10 -9 -10 -20 0 -11 -4 -20 -10
-20 -5 0 -10 -9 -10 -20 0 -11 -4 -20 -9 -20 -8 0 -24 -55 -18 -64 1 -2 -6
-13 -16 -24 -9 -10 -15 -26 -12 -35 4 -8 2 -18 -4 -22 -6 -3 -11 -21 -11 -40
0 -19 -4 -36 -9 -39 -9 -6 -18 -53 -27 -146 -3 -30 -10 -59 -15 -64 -12 -14
-12 -156 1 -156 6 0 10 9 10 20 0 11 5 20 10 20 6 0 10 9 10 20 0 11 4 20 8
20 5 0 15 17 23 37 8 20 24 57 37 82 12 24 22 57 22 72 0 15 5 31 10 34 6 3
10 17 10 31 0 13 5 33 10 44 6 11 14 29 20 40 5 11 10 29 10 40 0 11 5 20 10
20 6 0 10 7 10 15 0 8 4 23 9 33 5 9 19 39 32 66 13 26 29 51 37 53 14 6 44
58 37 65 -3 2 22 31 55 63 39 38 60 68 60 82 0 13 4 23 8 23 5 0 27 16 50 36
33 28 42 42 42 68 0 26 11 42 60 89 34 31 66 57 72 57 6 0 18 8 27 18 20 22
180 102 203 102 9 0 20 5 23 10 3 6 21 10 40 10 19 0 37 5 40 10 3 6 18 10 33
10 15 0 38 7 50 16 16 11 35 14 60 11 72 -11 102 -19 102 -29 0 -5 5 -6 10 -3
8 5 7 12 -1 22 -10 12 -10 16 2 24 19 12 66 11 74 -1 3 -5 19 -10 35 -10 16 0
32 -5 35 -11 4 -6 12 -8 19 -6 7 3 29 -4 51 -14 21 -10 47 -19 57 -19 10 0 18
-4 18 -10 0 -5 9 -10 20 -10 11 0 20 -4 20 -10 0 -5 7 -10 15 -10 9 0 25 -9
37 -20 12 -11 28 -20 35 -20 7 0 13 -4 13 -10 0 -5 6 -10 13 -10 7 0 31 -18
52 -40 21 -22 44 -40 50 -40 13 0 175 -162 175 -176 0 -13 93 -104 106 -104 6
0 23 -13 39 -30 16 -16 34 -30 40 -30 13 0 125 -116 143 -147 6 -13 12 -36 12
-52 0 -17 5 -33 10 -36 6 -3 10 -17 10 -31 0 -13 5 -24 10 -24 6 0 10 -9 10
-20 0 -11 5 -20 10 -20 6 0 10 -9 10 -19 0 -11 3 -21 8 -23 4 -1 22 -33 40
-69 40 -79 40 -123 2 -143 -48 -25 -94 -36 -104 -26 -6 6 -22 10 -38 10 -15 0
-43 9 -63 20 -20 11 -44 20 -55 20 -11 0 -20 5 -20 10 0 6 -28 10 -64 10 -36
0 -68 5 -71 10 -3 6 -35 10 -71 10 -36 0 -64 4 -64 10 0 6 -15 10 -34 10 -28
0 -41 8 -71 43 -23 25 -39 37 -42 30 -3 -7 -12 -13 -22 -13 -9 0 -23 -9 -31
-20 -8 -11 -20 -20 -26 -20 -6 0 -17 -6 -24 -14 -6 -8 -55 -36 -108 -63 -143
-70 -165 -84 -153 -96 6 -6 11 -21 11 -34 0 -13 5 -23 10 -23 6 0 10 -9 10
-20 0 -11 5 -20 10 -20 6 0 10 -13 10 -30 0 -16 5 -30 10 -30 6 0 10 -9 10
-20 0 -11 5 -20 10 -20 6 0 10 -10 10 -23 0 -14 24 -51 60 -93 71 -82 130
-193 130 -247 0 -20 -3 -37 -6 -37 -4 0 -22 18 -41 40 -19 22 -40 37 -45 34
-6 -4 -6 -9 -2 -13 19 -14 34 -53 34 -90 0 -22 4 -42 8 -45 11 -7 52 40 52 59
0 8 5 15 10 15 6 0 10 11 10 24 0 14 5 28 10 31 13 8 13 88 -1 102 -6 6 -11
41 -10 79 0 81 31 151 92 213 57 57 91 71 169 71 101 0 156 -35 143 -91 -8
-38 -31 -85 -48 -99 -8 -7 -15 -18 -15 -25 0 -7 -7 -19 -16 -26 -9 -7 -20 -22
-25 -34 -5 -11 -18 -33 -28 -50 -11 -16 -20 -47 -20 -67 -1 -20 -5 -40 -11
-43 -5 -3 -10 -14 -10 -23 0 -10 -9 -24 -20 -32 -11 -8 -20 -20 -20 -27 0 -15
-106 -125 -137 -141 -28 -16 -33 -15 -33 3 0 8 6 15 13 15 17 0 49 34 41 43
-7 7 -43 -12 -59 -30 -14 -16 -84 -33 -90 -23 -3 5 -1 11 5 15 15 9 12 28 -4
22 -17 -7 -70 39 -62 52 3 5 -1 15 -10 22 -9 7 -20 24 -26 38 -7 19 -11 22
-17 12 -5 -7 -6 -22 -4 -32 8 -30 -12 -22 -51 21 -20 22 -39 40 -42 40 -3 0
-3 -17 1 -37 4 -21 9 -100 12 -176 2 -76 8 -137 14 -137 5 0 9 -22 9 -49 0
-33 6 -56 20 -74 22 -27 26 -52 10 -62 -6 -3 -10 -15 -10 -26 0 -11 -7 -19
-16 -19 -9 0 -27 -9 -41 -20 -21 -17 -41 -20 -112 -20 -48 0 -91 4 -96 9 -6 5
-26 11 -45 13 -34 3 -35 4 -38 52 -2 27 2 54 7 59 7 7 11 83 11 209 0 191 1
198 20 198 11 0 20 5 20 10 0 6 14 10 30 10 17 0 30 5 30 10 0 6 11 10 24 10
14 0 28 5 31 10 3 6 14 10 23 10 9 0 25 7 35 14 15 12 16 18 6 40 -8 16 -20
26 -33 26 -26 0 -137 101 -118 107 26 10 10 23 -28 23 -22 0 -55 9 -75 20 -47
27 -215 29 -236 4 -7 -9 -24 -20 -36 -25 -13 -5 -26 -17 -30 -26 -3 -10 -53
-66 -111 -125 l-105 -106 0 -51 c1 -28 6 -58 13 -66 7 -8 9 -15 4 -15 -4 0 -3
-5 4 -12 7 -7 12 -21 12 -33 0 -12 5 -26 12 -33 9 -9 9 -15 1 -23 -11 -11 8
-62 28 -74 13 -8 61 -116 54 -123 -2 -3 -14 6 -26 19 -21 24 -21 24 -15 2 9
-28 -5 -30 -24 -3 -14 19 -15 19 -46 -11 -27 -26 -38 -30 -61 -24 -15 4 -47 9
-70 12 -24 3 -43 9 -43 14 0 5 -6 9 -14 9 -8 0 -18 9 -21 20 -3 11 -10 20 -15
20 -15 0 -27 53 -36 165 -3 39 -10 74 -15 79 -5 6 -9 25 -9 43 0 18 -4 33 -9
33 -6 0 -11 17 -13 38 -3 32 -7 37 -30 40 -24 3 -28 8 -28 36 0 33 -30 73 -48
62 -12 -7 -52 22 -52 38 0 8 -7 19 -15 26 -8 7 -15 21 -15 32 0 11 -5 18 -12
15 -7 -2 -13 -13 -13 -24 0 -12 -3 -25 -8 -29 -4 -4 -7 -18 -7 -31 0 -20 -4
-23 -20 -18 -16 5 -20 2 -20 -17 0 -29 -17 -48 -42 -48 -11 0 -18 -7 -18 -19
0 -10 -9 -21 -20 -24 -11 -3 -24 -17 -30 -32 -10 -28 -30 -26 -31 3 0 11 -4 9
-11 -8 l-10 -25 -9 23 c-9 24 -29 22 -29 -2 0 -22 -25 -37 -38 -24 -17 17 -16
-19 1 -55 12 -26 15 -27 93 -27 60 0 85 4 94 15 16 19 30 19 30 0 0 -18 1 -18
34 -5 14 5 26 16 26 25 0 21 13 19 28 -6 13 -20 14 -20 26 -3 9 12 15 14 20 6
4 -7 4 -17 1 -22 -3 -6 -1 -10 4 -10 6 0 11 -9 11 -20 0 -11 5 -20 10 -20 6 0
10 -9 10 -20 0 -11 5 -20 10 -20 6 0 10 -9 10 -20 0 -11 5 -20 10 -20 6 0 10
-9 10 -20 0 -11 5 -20 10 -20 6 0 10 -6 10 -13 0 -8 9 -22 20 -32 11 -10 20
-23 20 -30 0 -7 9 -20 20 -30 11 -10 20 -22 20 -27 0 -32 276 -308 307 -308 6
0 16 -7 23 -15 7 -9 29 -23 49 -32 20 -9 45 -24 56 -33 11 -10 45 -26 75 -36
30 -10 57 -21 60 -24 3 -3 25 -12 50 -19 25 -7 53 -17 62 -22 10 -5 29 -9 42
-9 14 0 28 -4 31 -10 3 -5 28 -10 55 -10 27 0 52 -4 55 -10 8 -13 292 -13 300
0 3 5 28 10 55 10 27 0 52 4 55 10 3 5 19 10 35 10 16 0 32 5 35 10 3 6 19 10
35 10 16 0 32 5 35 10 3 6 15 10 26 10 10 0 19 5 19 10 0 6 11 10 24 10 14 0
27 4 31 9 3 5 18 12 34 16 16 3 35 13 42 21 7 8 31 24 54 34 23 10 48 26 55
35 7 8 18 15 24 15 7 0 30 18 51 40 21 22 44 40 50 40 18 0 205 208 205 227 0
5 9 18 20 28 11 10 20 23 20 30 0 7 8 19 18 28 10 9 24 32 32 52 8 19 17 35
22 35 4 0 8 9 8 20 0 11 5 20 10 20 6 0 10 9 10 20 0 11 5 20 10 20 6 0 10 7
10 16 0 15 20 66 41 106 5 10 9 27 9 37 0 11 5 23 10 26 6 3 10 21 10 40 0 19
5 37 10 40 6 3 10 21 10 40 0 19 5 37 10 40 6 3 10 33 10 65 0 32 5 62 10 65
6 4 10 73 10 175 0 102 -4 171 -10 175 -5 3 -10 33 -10 65 0 32 -4 62 -10 65
-5 3 -10 21 -10 40 0 19 -4 37 -10 40 -5 3 -10 21 -10 40 0 19 -4 37 -10 40
-5 3 -10 15 -10 26 0 10 -4 27 -9 37 -21 40 -41 91 -41 106 0 9 -4 16 -10 16
-5 0 -10 9 -10 20 0 11 -4 20 -10 20 -5 0 -10 9 -10 20 0 11 -4 20 -8 20 -5 0
-14 16 -22 35 -8 20 -22 43 -32 52 -10 9 -18 21 -18 28 0 7 -9 20 -20 30 -11
10 -20 23 -20 28 0 19 -187 227 -205 227 -6 0 -29 18 -50 40 -21 22 -44 40
-51 40 -6 0 -17 7 -24 15 -7 9 -32 25 -55 35 -23 10 -47 26 -54 34 -7 8 -26
18 -42 21 -16 4 -31 11 -34 16 -4 5 -17 9 -31 9 -13 0 -24 5 -24 10 0 6 -9 10
-19 10 -11 0 -23 5 -26 10 -3 6 -19 10 -35 10 -16 0 -32 5 -35 10 -3 6 -19 10
-35 10 -16 0 -32 5 -35 10 -3 6 -28 10 -55 10 -27 0 -52 5 -55 10 -4 6 -65 10
-150 10 -85 0 -146 -4 -150 -10z"/>
<path d="M2275 1920 c-17 -19 -17 -21 0 -40 29 -32 47 -26 43 17 -4 43 -18 51
-43 23z"/>
<path d="M2610 1701 c0 -6 5 -13 10 -16 6 -3 10 -15 10 -25 0 -23 18 -36 32
-22 7 7 3 20 -13 41 -24 30 -39 39 -39 22z"/>
<path d="M1805 1070 c-3 -5 -1 -10 4 -10 6 0 11 5 11 10 0 6 -2 10 -4 10 -3 0
-8 -4 -11 -10z"/>
</g>
</svg>
